<mxfile host="app.diagrams.net" modified="2024-06-12T21:30:53.534Z" agent="Mozilla/5.0 (Linux; Android 10; K) AppleWebKit/537.36 (KHTML, like Gecko) Chrome/125.0.0.0 Mobile Safari/537.36" version="24.5.4" etag="qVP0prgli5PINoa7DR72" type="github">
  <diagram name="PÃ¡gina-1" id="xRppGUTspGL61a_EgO4I">
    <mxGraphModel>
      <root>
        <mxCell id="0" />
        <mxCell id="1" parent="0" />
      </root>
    </mxGraphModel>
  </diagram>
</mxfile>
